<svg xmlns="http://www.w3.org/2000/svg" xmlns:xlink="http://www.w3.org/1999/xlink" preserveAspectRatio="xMidYMid" width="31" height="37" viewBox="0 0 31 37">
  <defs>
    <style>

      .cls-2 {
        fill: #000000;
      }
    </style>
  </defs>
  <path d="M27.779,9.854 C27.779,9.854 24.006,9.854 24.006,9.854 C24.006,9.854 24.006,9.611 24.006,9.611 C24.006,4.322 19.961,0.012 14.985,0.012 C10.010,0.012 5.966,4.322 5.966,9.611 C5.966,9.611 5.966,9.854 5.966,9.854 C5.966,9.854 2.192,9.854 2.192,9.854 C2.192,9.854 -0.015,36.021 -0.015,36.021 C-0.015,36.021 29.987,36.021 29.987,36.021 C29.987,36.021 27.779,9.854 27.779,9.854 ZM14.985,1.191 C18.274,1.191 21.102,3.341 22.294,6.383 C20.717,3.872 18.033,2.212 14.985,2.212 C11.940,2.212 9.254,3.872 7.674,6.389 C8.872,3.341 11.700,1.191 14.985,1.191 ZM7.633,9.854 C8.369,6.252 11.389,3.547 14.987,3.547 C18.590,3.547 21.605,6.252 22.340,9.854 C22.340,9.854 7.633,9.854 7.633,9.854 Z" id="path-1" class="cls-2" fill-rule="evenodd"/>
</svg>
