<?xml version="1.0" encoding="utf-8"?>
<!-- Generator: Adobe Illustrator 18.1.1, SVG Export Plug-In . SVG Version: 6.00 Build 0)  -->
<svg version="1.1" id="Layer_1" xmlns="http://www.w3.org/2000/svg" xmlns:xlink="http://www.w3.org/1999/xlink" x="0px" y="0px"
	 viewBox="-611 327.7 194 54" enable-background="new -611 327.7 194 54" xml:space="preserve">
<g id="group-2">
	<path id="path-1" d="M-474.9,362.4h5.4v8.2h-7.4c-2.4,0-4.4-0.5-6-1.4c-1.6-0.9-2.8-2.1-3.6-3.6c-0.8-1.5-1.1-3-1.1-4.5v-13.8v-7.5
		v-6.6l10.5-2.8v12.2h7.6v7.5h-7.6v10.3C-477,361.8-476.3,362.4-474.9,362.4z M-502.4,342.7h10.5v27.9h-10.5V342.7z M-502.6,327.7
		h10.6v8.2h-10.6V327.7z M-514.8,370.6h-10.5v-23.2v-7.5v-2.8c0-1.5,0.4-3,1.1-4.5c0.8-1.5,1.9-2.6,3.6-3.6c1.6-0.9,3.6-1.4,6-1.4
		h7.7v8.2h-5.7c-1.4,0-2.1,0.7-2.1,2v4.9h7.8v7.5h-7.8V370.6z M-532.4,366.9c-2.8,2.7-6.5,4.1-11.1,4.1c-4.7,0-8.4-1.4-11.1-4.1
		c-0.9-0.9-1.7-1.9-2.3-3c-0.6-1.1-1-2.4-1.2-3.8c-0.2-1.4-0.3-3.2-0.3-5.4c0-2.2,0.1-4,0.3-5.4c0.2-1.4,0.6-2.7,1.2-3.8
		c0.6-1.1,1.3-2.1,2.3-3.1c1.2-1.2,2.7-2.2,4.5-2.9c1.8-0.8,4-1.2,6.6-1.2s4.7,0.4,6.6,1.1c1.8,0.8,3.4,1.7,4.6,2.9
		c1.4,1.4,2.4,3,2.9,4.8c0.5,1.8,0.8,4.3,0.8,7.4c0,3.2-0.3,5.6-0.8,7.4C-530,363.8-531,365.4-532.4,366.9z M-539.5,350.3
		c-0.2-1-0.6-1.8-1.2-2.3c-0.6-0.6-1.6-0.9-2.8-0.9c-1.2,0-2.2,0.3-2.8,0.9c-0.6,0.6-1,1.4-1.2,2.5s-0.3,2.5-0.3,4.2
		c0,1.7,0.1,3.1,0.3,4.1c0.2,1.1,0.6,1.9,1.2,2.5c0.6,0.6,1.6,0.9,2.8,0.9c1.3,0,2.2-0.3,2.8-0.9c0.6-0.6,1-1.4,1.2-2.4
		c0.2-1,0.3-2.4,0.3-4.3C-539.2,352.8-539.3,351.3-539.5,350.3z M-565.8,346.5c-1.4,0-2.1,0.7-2.1,2v22.1h-10.5v-20v-2.8
		c0-1.5,0.4-3,1.1-4.5c0.8-1.5,2-2.6,3.6-3.6c1.6-0.9,3.6-1.4,6-1.4h9.3l-2.1,8.2H-565.8z M-584.4,365.8c-3.8,4.1-9.9,5.2-16.1,4.7
		v11H-611c0,0,0-41.1,0-43.2c8.6-0.1,15-0.1,18.2-0.1c3.5,0,6.3,1,8.4,2.9c1.4,1.3,2.3,2.9,2.6,4.8c0.4,1.9,0.6,4.3,0.6,7.1v1.5v1.5
		c0,2.8-0.2,3-0.6,4.9C-582.1,362.9-583.1,364.4-584.4,365.8z M-594.8,346c-1.4,0-3.6,0.1-5,0.1l-0.7,0.3v16.4c0,0,1,0.1,4.1,0.1
		c2.2,0,3.7-1.2,4.5-2.5c0.8-1.3,1.2-3.7,1.2-6.8C-590.8,348.3-591.6,346-594.8,346z"/>
	<path id="path-2" fill="#FF9F1C" d="M-451.3,346.8c0.8-0.5,1.8-0.7,2.9-0.7s2.1,0.2,2.9,0.7c0.8,0.5,1.3,1.1,1.7,1.8
		c0.4,0.7,0.6,1.5,0.6,2.5h-10.2c0-0.9,0.2-1.8,0.6-2.5C-452.7,347.9-452.1,347.3-451.3,346.8z M-418.2,359.6l-15.7,15.9
		c-0.8,0.7-1.8,1.2-2.9,1.2c-1.1,0-2.1-0.5-2.9-1.2l-4.8-4.9c1.7-0.2,3.3-0.5,4.5-1c2-0.8,3.9-2.1,5.8-3.9l-6.3-5.8
		c-1,0.9-2,1.6-3,2c-1,0.4-2.4,0.6-4.1,0.6c-1.9,0-3.3-0.5-4.4-1.4c-1.1-1-1.6-2.1-1.6-3.5h20.7v-4.4c0-2.9-0.6-5.4-1.8-7.7
		c-1.2-2.3-3-4.1-5.3-5.4c-2.4-1.3-5.1-2-8.4-2c-4.6,0-8.3,1.4-11.2,4.3c-2.1,2.1-3.5,4.9-4,8.3c-1-1.7-1.7-3.8-1.7-5.5v-13.5
		c0-2.3,1.8-4.1,4.1-4.1h13.3c2.3,0,5.4,1.3,7,2.9l22.8,23.1c0.7,0.8,1.2,1.8,1.2,2.9C-417,357.7-417.4,358.8-418.2,359.6z"/>
	<path id="path-3" d="M-471.6,378.5c0.1,0.1,0.2,0.1,0.3,0.2c0.1,0.1,0.3,0.1,0.4,0.2c0.2,0.1,0.4,0.2,0.6,0.3
		c0.2,0.1,0.3,0.2,0.4,0.3c0.1,0.1,0.2,0.2,0.3,0.4c0.1,0.2,0.1,0.3,0.1,0.6c0,0.4-0.2,0.8-0.5,1c-0.3,0.2-0.8,0.3-1.4,0.3
		c-0.4,0-0.7,0-1-0.1s-0.4-0.1-0.5-0.2l0.2-0.7c0.1,0,0.2,0.1,0.5,0.2c0.2,0.1,0.5,0.1,0.8,0.1c0.3,0,0.6,0,0.8-0.1
		c0.2-0.1,0.2-0.2,0.2-0.4c0-0.2-0.1-0.4-0.2-0.5c-0.2-0.1-0.4-0.3-0.8-0.4c-0.2-0.1-0.4-0.1-0.5-0.2c-0.2-0.1-0.3-0.2-0.4-0.3
		c-0.1-0.1-0.2-0.2-0.3-0.4c-0.1-0.1-0.1-0.3-0.1-0.5c0-0.4,0.2-0.8,0.5-1c0.3-0.2,0.7-0.4,1.3-0.4c0.1,0,0.3,0,0.4,0
		c0.1,0,0.3,0,0.4,0.1c0.1,0,0.2,0,0.3,0.1c0.1,0,0.2,0,0.2,0.1l-0.2,0.7c-0.1,0-0.2-0.1-0.4-0.2c-0.2-0.1-0.4-0.1-0.7-0.1
		c-0.2,0-0.4,0-0.6,0.1c-0.2,0.1-0.3,0.2-0.3,0.4c0,0.1,0,0.2,0.1,0.3C-471.8,378.3-471.7,378.4-471.6,378.5z M-474.6,379.1
		c0-0.3,0-0.5-0.1-0.7c0-0.2-0.1-0.4-0.2-0.5c-0.1-0.1-0.2-0.2-0.4-0.3c-0.2-0.1-0.3-0.1-0.6-0.1c-0.1,0-0.2,0-0.3,0
		c-0.1,0-0.2,0-0.3,0c-0.1,0-0.2,0-0.2,0c-0.1,0-0.1,0-0.1,0v4h-0.8v-4.6c0.2,0,0.4-0.1,0.8-0.2c0.3-0.1,0.7-0.1,1.1-0.1
		c0.4,0,0.7,0.1,0.9,0.2c0.2,0.1,0.4,0.3,0.6,0.4c0.1,0.2,0.3,0.4,0.3,0.7c0.1,0.3,0.1,0.6,0.1,0.9v2.7h-0.8V379.1z M-479.3,381
		c-0.2,0.2-0.4,0.4-0.7,0.5c-0.3,0.1-0.6,0.2-0.9,0.2c-0.3,0-0.6-0.1-0.9-0.2c-0.3-0.1-0.5-0.3-0.7-0.5c-0.2-0.2-0.3-0.5-0.5-0.8
		c-0.1-0.3-0.2-0.6-0.2-1c0-0.4,0.1-0.7,0.2-1c0.1-0.3,0.3-0.6,0.5-0.8c0.2-0.2,0.4-0.4,0.7-0.5c0.3-0.1,0.6-0.2,0.9-0.2
		c0.3,0,0.6,0.1,0.9,0.2c0.3,0.1,0.5,0.3,0.7,0.5s0.3,0.5,0.5,0.8c0.1,0.3,0.2,0.6,0.2,1c0,0.4-0.1,0.7-0.2,1
		C-478.9,380.5-479.1,380.8-479.3,381z M-479.9,377.9c-0.2-0.3-0.6-0.5-1-0.5s-0.7,0.2-1,0.5c-0.2,0.3-0.4,0.7-0.4,1.3
		c0,0.5,0.1,1,0.4,1.3c0.2,0.3,0.6,0.5,1,0.5s0.7-0.2,1-0.5c0.2-0.3,0.4-0.7,0.4-1.3C-479.5,378.6-479.6,378.2-479.9,377.9z
		 M-484.7,375.9c-0.2,0-0.3-0.1-0.4-0.2c-0.1-0.1-0.2-0.2-0.2-0.4c0-0.2,0.1-0.3,0.2-0.4c0.1-0.1,0.2-0.2,0.4-0.2
		c0.2,0,0.3,0.1,0.4,0.2c0.1,0.1,0.2,0.2,0.2,0.4c0,0.2-0.1,0.3-0.2,0.4C-484.4,375.9-484.6,375.9-484.7,375.9z M-487.1,381.6
		c-0.3,0-0.6,0-0.8-0.1c-0.2-0.1-0.4-0.2-0.5-0.4c-0.1-0.2-0.2-0.4-0.3-0.6c-0.1-0.2-0.1-0.5-0.1-0.8v-4.2l0.8-0.1v1.5h1.8v0.7h-1.8
		v2.2c0,0.2,0,0.4,0.1,0.6c0,0.2,0.1,0.3,0.2,0.4c0.1,0.1,0.2,0.1,0.3,0.2c0.1,0,0.2,0.1,0.4,0.1c0.3,0,0.5,0,0.6-0.1
		c0.2-0.1,0.3-0.1,0.3-0.1l0.2,0.7c-0.1,0-0.2,0.1-0.4,0.2S-486.8,381.6-487.1,381.6z M-491.9,381.6c-0.4,0-0.7-0.1-0.9-0.2
		c-0.2-0.1-0.4-0.3-0.6-0.5c-0.2-0.2-0.3-0.4-0.3-0.7c-0.1-0.3-0.1-0.6-0.1-0.9v-2.7h0.8v2.5c0,0.6,0.1,1,0.3,1.2
		c0.2,0.3,0.5,0.4,0.9,0.4c0.1,0,0.2,0,0.3,0c0.1,0,0.2,0,0.3,0c0.1,0,0.2,0,0.2,0s0.1,0,0.1,0v-4h0.8v4.6c-0.2,0-0.4,0.1-0.8,0.2
		C-491.1,381.6-491.5,381.6-491.9,381.6z M-496,381.3c-0.2-0.2-0.3-0.5-0.3-1v-5.7l0.8-0.1v5.7c0,0.1,0,0.3,0,0.3
		c0,0.1,0.1,0.2,0.1,0.2c0.1,0.1,0.1,0.1,0.2,0.1c0.1,0,0.2,0,0.3,0.1l-0.1,0.7C-495.4,381.6-495.8,381.5-496,381.3z M-498,381
		c-0.2,0.2-0.4,0.4-0.7,0.5c-0.3,0.1-0.6,0.2-0.9,0.2s-0.6-0.1-0.9-0.2c-0.3-0.1-0.5-0.3-0.7-0.5c-0.2-0.2-0.3-0.5-0.5-0.8
		c-0.1-0.3-0.2-0.6-0.2-1c0-0.4,0.1-0.7,0.2-1c0.1-0.3,0.3-0.6,0.5-0.8c0.2-0.2,0.4-0.4,0.7-0.5c0.3-0.1,0.6-0.2,0.9-0.2
		s0.6,0.1,0.9,0.2c0.3,0.1,0.5,0.3,0.7,0.5c0.2,0.2,0.3,0.5,0.5,0.8c0.1,0.3,0.2,0.6,0.2,1c0,0.4-0.1,0.7-0.2,1
		C-497.7,380.5-497.8,380.8-498,381z M-498.6,377.9c-0.2-0.3-0.6-0.5-1-0.5s-0.7,0.2-1,0.5c-0.2,0.3-0.4,0.7-0.4,1.3
		c0,0.5,0.1,1,0.4,1.3c0.2,0.3,0.6,0.5,1,0.5s0.7-0.2,1-0.5c0.2-0.3,0.4-0.7,0.4-1.3C-498.3,378.6-498.4,378.2-498.6,377.9z
		 M-504.5,381.7c-0.4,0-0.7,0-1-0.1c-0.2-0.1-0.4-0.1-0.5-0.2l0.2-0.7c0.1,0,0.3,0.1,0.5,0.2s0.5,0.1,0.8,0.1c0.3,0,0.6,0,0.8-0.1
		c0.2-0.1,0.2-0.2,0.2-0.4c0-0.2-0.1-0.4-0.2-0.5c-0.2-0.1-0.4-0.3-0.8-0.4c-0.2-0.1-0.4-0.1-0.5-0.2c-0.2-0.1-0.3-0.2-0.4-0.3
		c-0.1-0.1-0.2-0.2-0.3-0.4c-0.1-0.1-0.1-0.3-0.1-0.5c0-0.4,0.2-0.8,0.5-1c0.3-0.2,0.7-0.4,1.3-0.4c0.1,0,0.3,0,0.4,0
		c0.1,0,0.3,0,0.4,0.1c0.1,0,0.2,0,0.3,0.1c0.1,0,0.2,0,0.2,0.1l-0.2,0.7c-0.1,0-0.2-0.1-0.4-0.2c-0.2-0.1-0.4-0.1-0.7-0.1
		c-0.2,0-0.4,0-0.6,0.1c-0.2,0.1-0.3,0.2-0.3,0.4c0,0.1,0,0.2,0.1,0.3c0,0.1,0.1,0.2,0.2,0.2c0.1,0.1,0.2,0.1,0.3,0.2
		c0.1,0.1,0.3,0.1,0.4,0.2c0.2,0.1,0.4,0.2,0.6,0.3c0.2,0.1,0.3,0.2,0.4,0.3c0.1,0.1,0.2,0.2,0.3,0.4c0.1,0.2,0.1,0.3,0.1,0.6
		c0,0.4-0.2,0.8-0.5,1S-503.9,381.7-504.5,381.7z M-512.1,379.4c0,0.5,0.2,0.9,0.4,1.1c0.2,0.3,0.6,0.4,1.2,0.4c0.3,0,0.5,0,0.7-0.1
		c0.2-0.1,0.4-0.1,0.5-0.2l0.1,0.7c-0.1,0.1-0.3,0.1-0.5,0.2s-0.5,0.1-0.9,0.1c-0.4,0-0.8-0.1-1.1-0.2s-0.5-0.3-0.7-0.5
		s-0.3-0.5-0.4-0.8c-0.1-0.3-0.1-0.6-0.1-1c0-0.4,0.1-0.8,0.2-1.1c0.1-0.3,0.3-0.6,0.5-0.8c0.2-0.2,0.4-0.4,0.7-0.5
		c0.3-0.1,0.5-0.2,0.8-0.2c0.6,0,1.1,0.2,1.5,0.6c0.3,0.4,0.5,1,0.5,1.8c0,0,0,0.1,0,0.1c0,0.1,0,0.1,0,0.2H-512.1z M-510,377.8
		c-0.2-0.2-0.5-0.4-0.8-0.4c-0.2,0-0.4,0-0.5,0.1c-0.1,0.1-0.3,0.2-0.4,0.3c-0.1,0.1-0.2,0.3-0.2,0.4c-0.1,0.2-0.1,0.3-0.1,0.5h2.3
		C-509.7,378.3-509.8,378-510,377.8z M-515.9,380.4c0.1,0.2,0.3,0.3,0.5,0.4c0.2,0.1,0.4,0.1,0.7,0.1c0.2,0,0.4,0,0.6-0.1
		c0.2,0,0.3-0.1,0.4-0.1l0.1,0.7c0,0-0.1,0.1-0.2,0.1c-0.1,0-0.2,0.1-0.3,0.1c-0.1,0-0.2,0-0.4,0.1c-0.1,0-0.3,0-0.4,0
		c-0.4,0-0.7-0.1-1-0.2c-0.3-0.1-0.5-0.3-0.7-0.5c-0.2-0.2-0.3-0.5-0.4-0.8c-0.1-0.3-0.1-0.6-0.1-1c0-0.4,0.1-0.7,0.2-1
		c0.1-0.3,0.3-0.6,0.4-0.8c0.2-0.2,0.4-0.4,0.7-0.5c0.3-0.1,0.6-0.2,0.9-0.2c0.2,0,0.4,0,0.6,0.1c0.2,0,0.4,0.1,0.6,0.2l-0.2,0.7
		c-0.1-0.1-0.3-0.1-0.4-0.1c-0.2,0-0.3-0.1-0.5-0.1c-0.5,0-0.8,0.1-1.1,0.4s-0.4,0.7-0.4,1.3c0,0.3,0,0.5,0.1,0.7
		C-516.1,380.1-516,380.3-515.9,380.4z M-518.3,377.5c-0.2,0-0.4,0-0.6,0c-0.2,0-0.3,0-0.5,0c-0.2,0-0.3,0.1-0.3,0.1v4h-0.8V377
		c0.2-0.1,0.4-0.1,0.7-0.2c0.3-0.1,0.6-0.1,1-0.1c0.1,0,0.2,0,0.2,0c0.1,0,0.2,0,0.3,0c0.1,0,0.2,0,0.2,0c0.1,0,0.1,0,0.2,0
		l-0.1,0.7C-518,377.5-518.1,377.5-518.3,377.5z M-525,379.4c0,0.5,0.2,0.9,0.4,1.1c0.2,0.3,0.6,0.4,1.2,0.4c0.3,0,0.5,0,0.7-0.1
		c0.2-0.1,0.4-0.1,0.5-0.2l0.1,0.7c-0.1,0.1-0.3,0.1-0.5,0.2s-0.5,0.1-0.9,0.1c-0.4,0-0.8-0.1-1.1-0.2c-0.3-0.1-0.5-0.3-0.7-0.5
		s-0.3-0.5-0.4-0.8c-0.1-0.3-0.1-0.6-0.1-1c0-0.4,0.1-0.8,0.2-1.1c0.1-0.3,0.3-0.6,0.5-0.8s0.4-0.4,0.7-0.5c0.3-0.1,0.5-0.2,0.8-0.2
		c0.6,0,1.1,0.2,1.5,0.6c0.3,0.4,0.5,1,0.5,1.8c0,0,0,0.1,0,0.1c0,0.1,0,0.1,0,0.2H-525z M-522.9,377.8c-0.2-0.2-0.5-0.4-0.8-0.4
		c-0.2,0-0.4,0-0.5,0.1c-0.1,0.1-0.3,0.2-0.4,0.3c-0.1,0.1-0.2,0.3-0.2,0.4c-0.1,0.2-0.1,0.3-0.1,0.5h2.3
		C-522.6,378.3-522.7,378-522.9,377.8z M-527.8,379.1c0-0.3,0-0.5,0-0.7c0-0.2-0.1-0.4-0.2-0.5c-0.1-0.1-0.2-0.2-0.3-0.3
		c-0.1-0.1-0.3-0.1-0.5-0.1c-0.3,0-0.5,0-0.7,0.1c-0.2,0.1-0.3,0.1-0.4,0.2c0,0.2,0.1,0.3,0.1,0.5c0,0.2,0,0.4,0,0.6v2.7h-0.8v-2.5
		c0-0.3,0-0.5,0-0.7c0-0.2-0.1-0.4-0.2-0.5c-0.1-0.1-0.2-0.2-0.3-0.3c-0.1-0.1-0.3-0.1-0.5-0.1c-0.1,0-0.2,0-0.3,0
		c-0.1,0-0.2,0-0.3,0c-0.1,0-0.2,0-0.2,0c-0.1,0-0.1,0-0.1,0v4h-0.8v-4.6c0.2,0,0.4-0.1,0.8-0.2c0.3-0.1,0.7-0.1,1.1-0.1
		c0.3,0,0.6,0,0.8,0.1c0.2,0.1,0.4,0.2,0.5,0.4c0,0,0.1-0.1,0.2-0.1c0.1-0.1,0.2-0.1,0.3-0.2c0.1-0.1,0.3-0.1,0.4-0.1
		c0.2,0,0.3-0.1,0.5-0.1c0.4,0,0.7,0.1,0.9,0.2c0.2,0.1,0.4,0.3,0.5,0.5c0.1,0.2,0.2,0.4,0.3,0.7c0,0.3,0.1,0.6,0.1,0.9v2.7h-0.8
		V379.1z M-535.5,379.1c0-0.3,0-0.5,0-0.7c0-0.2-0.1-0.4-0.2-0.5c-0.1-0.1-0.2-0.2-0.3-0.3c-0.1-0.1-0.3-0.1-0.5-0.1
		c-0.3,0-0.5,0-0.7,0.1c-0.2,0.1-0.3,0.1-0.4,0.2c0,0.2,0.1,0.3,0.1,0.5c0,0.2,0,0.4,0,0.6v2.7h-0.8v-2.5c0-0.3,0-0.5,0-0.7
		c0-0.2-0.1-0.4-0.2-0.5c-0.1-0.1-0.2-0.2-0.3-0.3c-0.1-0.1-0.3-0.1-0.5-0.1c-0.1,0-0.2,0-0.3,0c-0.1,0-0.2,0-0.3,0
		c-0.1,0-0.2,0-0.2,0c-0.1,0-0.1,0-0.1,0v4h-0.8v-4.6c0.2,0,0.4-0.1,0.8-0.2c0.3-0.1,0.7-0.1,1.1-0.1c0.3,0,0.6,0,0.8,0.1
		c0.2,0.1,0.4,0.2,0.5,0.4c0,0,0.1-0.1,0.2-0.1c0.1-0.1,0.2-0.1,0.3-0.2c0.1-0.1,0.3-0.1,0.4-0.1c0.2,0,0.3-0.1,0.5-0.1
		c0.4,0,0.7,0.1,0.9,0.2c0.2,0.1,0.4,0.3,0.5,0.5c0.1,0.2,0.2,0.4,0.3,0.7c0,0.3,0.1,0.6,0.1,0.9v2.7h-0.8V379.1z M-542.8,381
		c-0.2,0.2-0.4,0.4-0.7,0.5c-0.3,0.1-0.6,0.2-0.9,0.2c-0.3,0-0.6-0.1-0.9-0.2c-0.3-0.1-0.5-0.3-0.7-0.5c-0.2-0.2-0.3-0.5-0.5-0.8
		c-0.1-0.3-0.2-0.6-0.2-1c0-0.4,0.1-0.7,0.2-1c0.1-0.3,0.3-0.6,0.5-0.8c0.2-0.2,0.4-0.4,0.7-0.5c0.3-0.1,0.6-0.2,0.9-0.2
		c0.3,0,0.6,0.1,0.9,0.2c0.3,0.1,0.5,0.3,0.7,0.5s0.3,0.5,0.5,0.8c0.1,0.3,0.2,0.6,0.2,1c0,0.4-0.1,0.7-0.2,1
		C-542.5,380.5-542.6,380.8-542.8,381z M-543.4,377.9c-0.2-0.3-0.6-0.5-1-0.5c-0.4,0-0.7,0.2-1,0.5s-0.4,0.7-0.4,1.3
		c0,0.5,0.1,1,0.4,1.3c0.2,0.3,0.6,0.5,1,0.5c0.4,0,0.7-0.2,1-0.5c0.2-0.3,0.4-0.7,0.4-1.3C-543.1,378.6-543.2,378.2-543.4,377.9z
		 M-549.4,380.4c0.1,0.2,0.3,0.3,0.5,0.4c0.2,0.1,0.4,0.1,0.7,0.1c0.2,0,0.4,0,0.6-0.1c0.2,0,0.3-0.1,0.4-0.1l0.1,0.7
		c0,0-0.1,0.1-0.2,0.1c-0.1,0-0.2,0.1-0.3,0.1c-0.1,0-0.2,0-0.4,0.1c-0.1,0-0.3,0-0.4,0c-0.4,0-0.7-0.1-1-0.2
		c-0.3-0.1-0.5-0.3-0.7-0.5c-0.2-0.2-0.3-0.5-0.4-0.8c-0.1-0.3-0.1-0.6-0.1-1c0-0.4,0.1-0.7,0.2-1c0.1-0.3,0.3-0.6,0.4-0.8
		c0.2-0.2,0.4-0.4,0.7-0.5c0.3-0.1,0.6-0.2,0.9-0.2c0.2,0,0.4,0,0.6,0.1c0.2,0,0.4,0.1,0.6,0.2l-0.2,0.7c-0.1-0.1-0.3-0.1-0.4-0.1
		c-0.2,0-0.3-0.1-0.5-0.1c-0.5,0-0.8,0.1-1.1,0.4s-0.4,0.7-0.4,1.3c0,0.3,0,0.5,0.1,0.7C-549.6,380.1-549.5,380.3-549.4,380.4z
		 M-553.5,378.4h2.2v0.8h-2.2V378.4z M-557.5,379.4c0,0.5,0.2,0.9,0.4,1.1c0.2,0.3,0.6,0.4,1.2,0.4c0.3,0,0.5,0,0.7-0.1
		c0.2-0.1,0.4-0.1,0.5-0.2l0.1,0.7c-0.1,0.1-0.3,0.1-0.5,0.2c-0.3,0.1-0.5,0.1-0.9,0.1c-0.4,0-0.8-0.1-1.1-0.2
		c-0.3-0.1-0.5-0.3-0.7-0.5c-0.2-0.2-0.3-0.5-0.4-0.8c-0.1-0.3-0.1-0.6-0.1-1c0-0.4,0.1-0.8,0.2-1.1c0.1-0.3,0.3-0.6,0.5-0.8
		c0.2-0.2,0.4-0.4,0.7-0.5c0.3-0.1,0.5-0.2,0.8-0.2c0.6,0,1.1,0.2,1.5,0.6c0.3,0.4,0.5,1,0.5,1.8c0,0,0,0.1,0,0.1c0,0.1,0,0.1,0,0.2
		H-557.5z M-555.4,377.8c-0.2-0.2-0.5-0.4-0.8-0.4c-0.2,0-0.4,0-0.5,0.1c-0.1,0.1-0.3,0.2-0.4,0.3c-0.1,0.1-0.2,0.3-0.2,0.4
		c-0.1,0.2-0.1,0.3-0.1,0.5h2.3C-555.1,378.3-555.2,378-555.4,377.8z M-484.3,381.5h-0.8v-4.7h0.8V381.5z"/>
</g>
</svg>
